<?xml version="1.0" encoding="UTF-8"?>
<svg version="1.1" xmlns="http://www.w3.org/2000/svg" width="1024" height="1024">
<path d="M0 0 C3.47501626 0.00314044 6.94916168 -0.02031513 10.42407227 -0.0456543 C25.22112994 -0.08634257 39.6154377 0.99142703 54.27685547 2.9622345 C57.00949403 3.3074659 59.7400764 3.57765279 62.48291016 3.82739258 C65.92268649 4.15926341 69.11905669 4.68149825 72.44165039 5.67114258 C73.35914063 5.93717285 74.27663086 6.20320312 75.22192383 6.47729492 C76.16326172 6.75395996 77.10459961 7.030625 78.07446289 7.31567383 C80.05523249 7.85711052 82.03703171 8.39479273 84.01977539 8.92895508 C94.48884584 11.79718208 104.86898174 14.71519279 115.03588867 18.53759766 C117.88208191 19.60045357 120.0043896 20.31567383 123.07446289 20.31567383 C123.07446289 20.97567383 123.07446289 21.63567383 123.07446289 22.31567383 C124.31067383 22.6946582 125.54688477 23.07364258 126.82055664 23.46411133 C132.82605649 25.47024627 138.44894994 28.17708019 144.13696289 30.94067383 C145.24023926 31.4748291 146.34351563 32.00898438 147.48022461 32.55932617 C161.71254903 39.510093 175.07468481 47.27301295 188.07446289 56.31567383 C189.00516602 56.96020508 189.93586914 57.60473633 190.89477539 58.26879883 C202.11621959 66.24104874 212.86629383 75.08358468 223.07446289 84.31567383 C223.94844727 85.0865332 224.82243164 85.85739258 225.72290039 86.65161133 C280.56289493 135.73412613 314.46034885 207.36298317 321.07446289 280.31567383 C321.14358887 281.05769043 321.21271484 281.79970703 321.28393555 282.56420898 C325.30536817 327.83981055 317.82753585 374.18312896 301.07446289 416.31567383 C300.76428223 417.11730957 300.45410156 417.91894531 300.13452148 418.74487305 C294.90461257 432.2220524 288.28111694 444.7973887 281.07446289 457.31567383 C280.37184326 458.53697998 280.37184326 458.53697998 279.6550293 459.78295898 C273.60590292 470.1974343 266.93821354 479.95051446 259.5300293 489.44262695 C258.13568567 491.23689134 256.76466084 493.04664169 255.39868164 494.86254883 C248.25281706 504.27595315 240.29960893 512.84018745 232.07446289 521.31567383 C231.27613037 522.13890137 231.27613037 522.13890137 230.46166992 522.97875977 C224.89541892 528.69096943 219.22403865 534.23064648 213.07446289 539.31567383 C212.56995605 539.73397461 212.06544922 540.15227539 211.5456543 540.58325195 C158.09474267 584.69367429 90.66227066 613.20031167 20.69555664 613.51879883 C19.65359131 613.52590378 18.61162598 613.53300873 17.53808594 613.54032898 C-26.15530506 613.77060869 -26.15530506 613.77060869 -45.92553711 610.31567383 C-47.18333984 610.10587891 -48.44114258 609.89608398 -49.73706055 609.67993164 C-96.36482469 601.78081738 -140.56985462 584.17708583 -178.92553711 556.31567383 C-179.58360352 555.84162109 -180.24166992 555.36756836 -180.91967773 554.87915039 C-195.44038491 544.37794332 -208.59178029 532.8172286 -221.30053711 520.19067383 C-222.21593262 519.28462402 -223.13132812 518.37857422 -224.07446289 517.44506836 C-230.11486349 511.37612871 -235.62931254 505.04093737 -240.92553711 498.31567383 C-241.7961377 497.21811768 -241.7961377 497.21811768 -242.68432617 496.09838867 C-252.98637338 483.0102336 -262.17230594 469.56004689 -270.48803711 455.12817383 C-271.01341064 454.21841797 -271.53878418 453.30866211 -272.08007812 452.37133789 C-272.80988892 451.08501465 -272.80988892 451.08501465 -273.55444336 449.77270508 C-273.98829346 449.00933838 -274.42214355 448.24597168 -274.86914062 447.45947266 C-275.88058557 445.40689626 -276.46880939 443.55050183 -276.92553711 441.31567383 C-278.24553711 440.98567383 -279.56553711 440.65567383 -280.92553711 440.31567383 C-280.26553711 439.98567383 -279.60553711 439.65567383 -278.92553711 439.31567383 C-279.47081055 438.23415039 -280.01608398 437.15262695 -280.57788086 436.03833008 C-285.29470711 426.4886814 -289.38478858 416.84213611 -292.98803711 406.81567383 C-293.38176514 405.72391846 -293.77549316 404.63216309 -294.18115234 403.50732422 C-296.92553711 395.72205744 -296.92553711 395.72205744 -296.92553711 392.31567383 C-297.58553711 391.98567383 -298.24553711 391.65567383 -298.92553711 391.31567383 C-299.47265625 389.42382812 -299.47265625 389.42382812 -299.89819336 386.95239258 C-300.57156415 383.24918168 -301.28984571 379.57161471 -302.10913086 375.89770508 C-313.35903507 324.46449374 -311.38901226 274.31428 -298.92553711 223.31567383 C-298.76722412 222.64093018 -298.60891113 221.96618652 -298.44580078 221.27099609 C-297.8455869 219.0151946 -297.08924537 216.85111521 -296.29663086 214.65551758 C-295.9840332 213.77959961 -295.67143555 212.90368164 -295.34936523 212.0012207 C-294.69012485 210.16448562 -294.02865423 208.32854954 -293.36499023 206.4934082 C-292.89802734 205.18146484 -292.89802734 205.18146484 -292.42163086 203.84301758 C-292.13473389 203.04629639 -291.84783691 202.2495752 -291.55224609 201.42871094 C-290.78336283 199.20364947 -290.78336283 199.20364947 -290.92553711 196.31567383 C-290.26553711 196.31567383 -289.60553711 196.31567383 -288.92553711 196.31567383 C-288.53624023 195.05883789 -288.14694336 193.80200195 -287.74584961 192.50708008 C-285.86408893 186.87390293 -283.38712502 181.59230032 -280.80053711 176.25317383 C-280.31335205 175.24383789 -279.82616699 174.23450195 -279.32421875 173.19458008 C-273.09003839 160.40276213 -266.16095075 148.3494317 -258.14428711 136.59692383 C-256.41223282 134.0354351 -254.7653751 131.46540382 -253.17553711 128.81567383 C-251.67503822 126.3772297 -250.06121005 124.21089936 -248.17944336 122.05395508 C-247.65012207 121.44438965 -247.12080078 120.83482422 -246.57543945 120.20678711 C-245.75873779 119.27068604 -245.75873779 119.27068604 -244.92553711 118.31567383 C-243.88727473 117.11167943 -242.84951241 115.90725362 -241.81225586 114.70239258 C-231.06718911 102.26668009 -220.44329784 90.01228877 -207.92553711 79.31567383 C-206.98967773 78.50227539 -206.05381836 77.68887695 -205.08959961 76.85083008 C-181.28335872 56.27962287 -154.67566409 39.68576441 -126.01147461 26.71411133 C-123.36385417 25.51430359 -120.76545289 24.25900641 -118.17553711 22.94067383 C-114.66221282 21.18401169 -111.17910684 20.0939027 -107.42553711 19.00317383 C-97.97434395 16.18694163 -97.97434395 16.18694163 -88.92553711 12.31567383 C-87.44170133 11.98771158 -85.95074145 11.69158947 -84.45678711 11.41333008 C-79.06512571 10.36699867 -73.75001871 9.0962504 -68.42553711 7.75317383 C-67.08749023 7.4215625 -67.08749023 7.4215625 -65.72241211 7.08325195 C-64.87163086 6.86991211 -64.02084961 6.65657227 -63.14428711 6.43676758 C-61.99863281 6.14950806 -61.99863281 6.14950806 -60.82983398 5.85644531 C-58.86213398 5.36141813 -58.86213398 5.36141813 -56.92553711 4.31567383 C-54.40412259 3.96226001 -51.89319407 3.65324031 -49.36303711 3.37817383 C-47.98670929 3.22345467 -46.61040878 3.06849248 -45.23413086 2.91333008 C-44.02261353 2.78341675 -44.02261353 2.78341675 -42.78662109 2.65087891 C-40.67800191 2.40383273 -38.57367769 2.11943771 -36.47265625 1.81445312 C-24.32796252 0.10567806 -12.25011037 -0.02303454 0 0 Z M-33.92553711 233.31567383 C-33.92553711 276.87567383 -33.92553711 320.43567383 -33.92553711 365.31567383 C-18.58053711 364.82067383 -18.58053711 364.82067383 -2.92553711 364.31567383 C-2.92553711 321.08567383 -2.92553711 277.85567383 -2.92553711 233.31567383 C-13.15553711 233.31567383 -23.38553711 233.31567383 -33.92553711 233.31567383 Z M152.07446289 233.31567383 C152.07446289 276.54567383 152.07446289 319.77567383 152.07446289 364.31567383 C178.80446289 364.31567383 205.53446289 364.31567383 233.07446289 364.31567383 C233.07446289 354.74567383 233.07446289 345.17567383 233.07446289 335.31567383 C217.23446289 335.31567383 201.39446289 335.31567383 185.07446289 335.31567383 C185.07446289 328.71567383 185.07446289 322.11567383 185.07446289 315.31567383 C188.88557617 315.33307617 188.88557617 315.33307617 192.77368164 315.35083008 C195.24267451 315.3586356 197.71166599 315.36470386 200.18066406 315.37060547 C201.89258442 315.37562481 203.6045005 315.38244168 205.31640625 315.39111328 C207.78134211 315.40328404 210.24622114 315.40892621 212.71118164 315.41333008 C213.47283127 315.41849136 214.2344809 315.42365265 215.01921082 315.42897034 C218.92691041 315.42938006 222.20193646 315.09017911 226.07446289 314.31567383 C226.07446289 304.74567383 226.07446289 295.17567383 226.07446289 285.31567383 C212.21446289 285.31567383 198.35446289 285.31567383 184.07446289 285.31567383 C184.07446289 278.38567383 184.07446289 271.45567383 184.07446289 264.31567383 C199.58446289 264.31567383 215.09446289 264.31567383 231.07446289 264.31567383 C231.07446289 254.08567383 231.07446289 243.85567383 231.07446289 233.31567383 C205.00446289 233.31567383 178.93446289 233.31567383 152.07446289 233.31567383 Z " fill="#FE5F26" transform="translate(506.925537109375,187.684326171875)"/>
<path d="M0 0 C14.19 0 28.38 0 43 0 C46.375 10.125 46.375 10.125 47.7175293 14.97875977 C48.01761398 16.05920059 48.31769867 17.13964142 48.62687683 18.25282288 C48.93949966 19.38755539 49.2521225 20.5222879 49.57421875 21.69140625 C49.90291458 22.87725815 50.23161041 24.06311005 50.57026672 25.28489685 C51.61154027 29.04349411 52.64956872 32.80297856 53.6875 36.5625 C54.39600572 39.12317963 55.10525169 41.68365351 55.81445312 44.24414062 C57.54542867 50.49541523 59.27374638 56.74741992 61 63 C63.03029672 59.95455493 63.74487879 57.76749042 64.67993164 54.25927734 C64.99688492 53.08150726 65.3138382 51.90373718 65.64039612 50.6902771 C65.97691696 49.41834503 66.31343781 48.14641296 66.66015625 46.8359375 C67.01304535 45.51967042 67.36652346 44.20356112 67.7205658 42.88760376 C68.65037775 39.4270143 69.57412797 35.96483958 70.49603271 32.50213623 C71.97404185 26.95207735 73.45821394 21.40368515 74.94808769 15.85680008 C75.46796677 13.91594464 75.98341827 11.97394976 76.49855042 10.03182983 C76.81235153 8.86036407 77.12615265 7.68889832 77.44946289 6.48193359 C77.72544815 5.44507416 78.00143341 4.40821472 78.28578186 3.3399353 C79 1 79 1 80 0 C94.19 0 108.38 0 123 0 C123 43.89 123 87.78 123 133 C112.77 133 102.54 133 92 133 C91.67 107.92 91.34 82.84 91 57 C86.52522401 73.04899023 86.52522401 73.04899023 82.05541992 89.09936523 C81.48894798 91.12749126 80.92230858 93.15557052 80.35546875 95.18359375 C80.06853149 96.21713989 79.78159424 97.25068604 79.48596191 98.31555176 C79.20208618 99.32960083 78.91821045 100.3436499 78.62573242 101.38842773 C78.38368576 102.25668686 78.1416391 103.12494598 77.89225769 104.01951599 C76.68803167 108.04209427 75.32782892 112.01651325 74 116 C65.42 116 56.84 116 48 116 C47.18015625 112.98617187 46.3603125 109.97234375 45.515625 106.8671875 C44.70821753 103.90147279 43.90050929 100.93584013 43.09277344 97.97021484 C42.5377725 95.9318887 41.98307716 93.89347933 41.42871094 91.85498047 C40.625182 88.90048868 39.82050117 85.94631252 39.015625 82.9921875 C38.77378479 82.10199921 38.53194458 81.21181091 38.28277588 80.29464722 C36.25075734 72.84348616 34.12227692 65.42796921 32 58 C31.67 82.75 31.34 107.5 31 133 C20.77 133 10.54 133 0 133 C0 89.11 0 45.22 0 0 Z " fill="#FEFDFC" transform="translate(520,420)"/>
<path d="M0 0 C63.60714286 0 63.60714286 0 76.2734375 10.96875 C86.48485951 21.44589675 88.29533964 33.95497711 88.31689453 47.90698242 C88.16583481 58.7058875 85.74447508 68.10974657 78 76 C75.73788616 77.86157859 73.47513011 79.41591673 71 81 C73.60708118 90.79390194 77.61217347 99.94177002 81.5625 109.25 C82.59353673 111.68818097 83.6230613 114.12697881 84.65013123 116.5668335 C85.28534303 118.07494287 85.92294921 119.5820468 86.56336975 121.08795166 C86.85384689 121.77596863 87.14432404 122.4639856 87.44360352 123.17285156 C87.69658707 123.76890198 87.94957062 124.36495239 88.21022034 124.97906494 C89.24058824 127.61563147 90.1048385 130.3145155 91 133 C79.45 133 67.9 133 56 133 C54.30875 128.875 52.6175 124.75 50.875 120.5 C50.04875122 118.49317139 50.04875122 118.49317139 49.20581055 116.44580078 C47.06950628 111.22640816 44.95384564 106.02267155 43.14453125 100.6796875 C42.89010254 99.93654297 42.63567383 99.19339844 42.37353516 98.42773438 C41.73200571 96.50816867 41.12070339 94.57857486 40.51171875 92.6484375 C40.01285156 91.77445312 39.51398438 90.90046875 39 90 C36.03 89.505 36.03 89.505 33 89 C33 103.52 33 118.04 33 133 C21.78 133 10.56 133 -1 133 C-0.67 89.11 -0.34 45.22 0 0 Z " fill="#FEFDFC" transform="translate(371,420)"/>
<path d="M0 0 C63.57142857 0 63.57142857 0 76.28125 10.96875 C83.34276274 18.24105417 87.74837982 27.80099519 88 38 C88.05027344 39.19625 88.10054688 40.3925 88.15234375 41.625 C88.5644376 55.4151889 86.45079613 68.0863087 76.9375 78.6875 C64.96419493 89.83327643 49.63508846 91 34 91 C34 104.86 34 118.72 34 133 C22.78 133 11.56 133 0 133 C0 89.11 0 45.22 0 0 Z " fill="#FEFCFB" transform="translate(274,420)"/>
<path d="M0 0 C0.73541016 0.00202423 1.47082031 0.00404846 2.22851562 0.00613403 C2.97939453 0.00517731 3.73027344 0.00422058 4.50390625 0.00323486 C6.09440189 0.00255315 7.6849003 0.00440682 9.27539062 0.00857544 C11.71816217 0.01392386 14.16074984 0.00863019 16.60351562 0.00222778 C18.1451827 0.00288857 19.68684966 0.00416973 21.22851562 0.00613403 C21.96392578 0.0041098 22.69933594 0.00208557 23.45703125 0 C28.61356402 0.02399493 28.61356402 0.02399493 29.72851562 1.13894653 C29.8248116 2.88521177 29.85039101 4.63540558 29.84877014 6.38432312 C29.85014481 7.52160858 29.85151947 8.65889404 29.85293579 9.8306427 C29.84754288 11.71877434 29.84754288 11.71877434 29.84204102 13.64505005 C29.84218704 14.9619281 29.84233307 16.27880615 29.84248352 17.6355896 C29.84277149 21.25732921 29.83687486 24.87903599 29.82990956 28.50076795 C29.82367592 32.28176538 29.82307222 36.06276348 29.82188416 39.84376526 C29.81877087 47.00838944 29.81055752 54.17299843 29.80053467 61.33761591 C29.78937345 69.49225815 29.78386306 77.6469011 29.77883923 85.80154908 C29.7683749 102.58069046 29.75077551 119.35981656 29.72851562 136.13894653 C25.32859606 138.33890631 19.38899141 137.36604579 14.49780273 137.37918091 C12.3028383 137.38889421 10.10880741 137.41992063 7.9140625 137.45144653 C6.52018785 137.45797602 5.12630651 137.4632267 3.73242188 137.46707153 C2.46213135 137.47641724 1.19184082 137.48576294 -0.11694336 137.49539185 C-3.27148438 137.13894653 -3.27148438 137.13894653 -4.9456749 135.9543705 C-6.76381582 133.46479967 -6.64358568 131.80504913 -6.63897705 128.73571777 C-6.64733078 127.05307579 -6.64733078 127.05307579 -6.65585327 125.33644104 C-6.64663849 124.10514969 -6.63742371 122.87385834 -6.62792969 121.60525513 C-6.62997406 120.30919846 -6.63201843 119.01314178 -6.63412476 117.67781067 C-6.63926191 114.1221376 -6.62571849 110.56675358 -6.60859776 107.011127 C-6.59357585 103.29467689 -6.59473616 99.57823075 -6.59393311 95.86175537 C-6.59023996 89.62239639 -6.57526839 83.3831474 -6.55273438 77.14382935 C-6.52383487 69.125466 -6.513509 61.10719112 -6.50905228 53.08878136 C-6.50507782 46.20522108 -6.49257678 39.32168016 -6.47870541 32.43813372 C-6.47460053 30.22010244 -6.47167795 28.00207185 -6.46891022 25.78403854 C-6.46312395 21.66060677 -6.44845587 17.53725427 -6.43261719 13.41384888 C-6.4309404 11.56083916 -6.4309404 11.56083916 -6.42922974 9.6703949 C-6.42351959 8.55427322 -6.41780945 7.43815155 -6.41192627 6.28820801 C-6.40895161 5.31223852 -6.40597694 4.33626904 -6.40291214 3.33072472 C-6.14711886 -0.93505683 -3.69362243 0.01718756 0 0 Z M-3.27148438 3.13894653 C-3.27148438 46.69894653 -3.27148438 90.25894653 -3.27148438 135.13894653 C12.07351563 134.64394653 12.07351563 134.64394653 27.72851562 134.13894653 C27.72851562 90.90894653 27.72851562 47.67894653 27.72851562 3.13894653 C17.49851562 3.13894653 7.26851563 3.13894653 -3.27148438 3.13894653 Z " fill="#FE571C" transform="translate(476.271484375,417.8610534667969)"/>
<path d="M0 0 C13.91891892 0 13.91891892 0 19.375 5.3125 C22.43457482 10.39472261 21.71377737 17.34122445 21 23 C19.26642784 27.09797197 17.90373765 29.75239347 14 32 C10 33 10 33 0 33 C0 22.11 0 11.22 0 0 Z " fill="#FE531F" transform="translate(404,449)"/>
<path d="M0 0 C12.71428571 0 12.71428571 0 17 3 C21.39887466 7.85393066 21.27945744 12.70483754 21.21875 18.98046875 C20.862719 23.89496808 19.68930488 27.36518882 16.0625 30.875 C10.67270868 33.81488617 6.41613729 33 0 33 C0 22.11 0 11.22 0 0 Z " fill="#FE531F" transform="translate(308,449)"/>
<path d="M0 0 C2.65133903 2.34236634 3.90758016 4.60967474 5.3125 7.83984375 C5.74272461 8.81091064 6.17294922 9.78197754 6.61621094 10.7824707 C7.07286133 11.82363037 7.52951172 12.86479004 8 13.9375 C14.86071371 29.23818169 22.58538854 44.0967596 32 58 C32.53753906 58.79921875 33.07507813 59.5984375 33.62890625 60.421875 C43.02169324 74.10788482 53.39129566 87.85125194 65.37890625 99.37890625 C67.85128727 101.85128727 70.07954651 104.52451851 72.32421875 107.203125 C73.97961858 109.09165581 73.97961858 109.09165581 76.20703125 110.609375 C76.79871094 111.06828125 77.39039063 111.5271875 78 112 C78 112.66 78 113.32 78 114 C78.55816406 114.2371875 79.11632812 114.474375 79.69140625 114.71875 C82.53608246 116.29752123 84.57868247 118.25823657 86.9375 120.5 C107.80865313 139.91477895 133.76541247 156.91085288 160 168 C162.3162726 169.05425032 164.62892004 170.1165093 166.9375 171.1875 C168.08089844 171.71730469 169.22429687 172.24710938 170.40234375 172.79296875 C171.25957031 173.19128906 172.11679687 173.58960938 173 174 C169.68209243 175.13340913 168.03746293 174.91869304 164.8671875 173.48046875 C164.07062744 173.12315674 163.27406738 172.76584473 162.45336914 172.39770508 C161.60250732 171.9983374 160.75164551 171.59896973 159.875 171.1875 C158.98482178 170.77588623 158.09464355 170.36427246 157.17749023 169.94018555 C123.61164265 154.1832075 93.848526 131.9289085 67.625 105.875 C66.70960449 104.9689502 65.79420898 104.06290039 64.85107422 103.12939453 C58.81067362 97.06045488 53.29622457 90.72526354 48 84 C47.41959961 83.2682959 46.83919922 82.5365918 46.24121094 81.78271484 C35.93916373 68.69455977 26.75323117 55.24437306 18.4375 40.8125 C17.91212646 39.90274414 17.38675293 38.99298828 16.84545898 38.05566406 C16.35891846 37.19811523 15.87237793 36.34056641 15.37109375 35.45703125 C14.93724365 34.69366455 14.50339355 33.93029785 14.05639648 33.14379883 C13.04495154 31.09122243 12.45672772 29.234828 12 27 C10.68 26.67 9.36 26.34 8 26 C8.66 25.67 9.32 25.34 10 25 C9.7326001 24.45585449 9.4652002 23.91170898 9.18969727 23.35107422 C7.97258845 20.8628922 6.76748234 18.36907575 5.5625 15.875 C4.93118164 14.59109375 4.93118164 14.59109375 4.28710938 13.28125 C2.15676932 8.85014269 0.44787955 4.96739142 0 0 Z " fill="#FD4F13" transform="translate(218,602)"/>
<path d="M0 0 C-2.95285334 2.95285334 -6.59470385 3.10592149 -10.5625 3.9375 C-46.7148484 12.11805173 -81.48320458 26.94511601 -112 48 C-114.04093295 49.33445616 -116.08260716 50.66777929 -118.125 52 C-123.68060762 55.71094413 -128.87123041 59.72346608 -134 64 C-134.98484375 64.81082031 -135.9696875 65.62164062 -136.984375 66.45703125 C-143.1488211 71.57044928 -149.12675224 76.86717163 -155 82.3125 C-155.62285889 82.88693848 -156.24571777 83.46137695 -156.88745117 84.05322266 C-160.57198847 87.50238533 -163.82985654 91.07372692 -167 95 C-170.76216626 98.96017501 -174.82010641 102.49467137 -179 106 C-173.04139501 92.73135383 -158.91108767 81.19451511 -148 72 C-147.07058594 71.19304687 -146.14117187 70.38609375 -145.18359375 69.5546875 C-121.3806634 48.96857131 -94.75562807 32.37258003 -66.0859375 19.3984375 C-63.43831707 18.19862976 -60.83991578 16.94333258 -58.25 15.625 C-54.73667571 13.86833786 -51.25356973 12.77822887 -47.5 11.6875 C-38.04880684 8.87126781 -38.04880684 8.87126781 -29 5 C-27.54725396 4.68166919 -26.08753876 4.3947887 -24.625 4.125 C-20.63540127 3.36287694 -16.73679457 2.42147855 -12.8125 1.375 C-8.36339744 0.23258528 -4.57391513 -0.31185785 0 0 Z " fill="#FD5014" transform="translate(447,195)"/>
<path d="M0 0 C5.45404704 0.91149991 9.71124021 3.18692809 14.5625 5.75 C15.48272949 6.2344458 16.40295898 6.7188916 17.35107422 7.21801758 C40.41206772 19.58602355 61.61540248 35.46890981 81 53 C81.87398437 53.77085937 82.74796875 54.54171875 83.6484375 55.3359375 C108.41158019 77.49927518 127.85818998 104.06186285 144 133 C144.42796875 133.76683105 144.8559375 134.53366211 145.296875 135.32373047 C146.28220214 137.17332786 147.15279534 139.08319946 148 141 C147.67 141.99 147.34 142.98 147 144 C146.65855957 143.38181396 146.31711914 142.76362793 145.96533203 142.12670898 C139.10453194 129.74394165 132.15268869 117.58020314 124 106 C123.33742188 105.05511719 122.67484375 104.11023438 121.9921875 103.13671875 C120.03184589 100.39462148 118.02847321 97.69206296 116 95 C115.61295898 94.48147461 115.22591797 93.96294922 114.82714844 93.42871094 C107.23081779 83.29827785 98.80514612 74.08819599 90 65 C88.67548828 63.63101563 88.67548828 63.63101563 87.32421875 62.234375 C82.74239374 57.58132991 78.00748505 53.19009842 73 49 C72.4548877 48.54109375 71.90977539 48.0821875 71.34814453 47.609375 C62.23191971 39.96304187 52.87825159 32.9031837 42.97021484 26.31738281 C40.99529225 24.99685216 39.03741941 23.65393958 37.08203125 22.3046875 C30.60368432 17.86190019 24.18815116 13.89304448 17.07421875 10.515625 C11.22684331 7.63280204 5.63041768 4.28163397 0 1 C0 0.67 0 0.34 0 0 Z " fill="#FC4E13" transform="translate(649,219)"/>
<path d="M0 0 C1.0722583 -0.00451172 2.1445166 -0.00902344 3.24926758 -0.01367188 C4.19310303 -0.01173828 5.13693848 -0.00980469 6.109375 -0.0078125 C7.29225098 -0.00612061 7.29225098 -0.00612061 8.49902344 -0.00439453 C10.25 0.125 10.25 0.125 11.25 1.125 C11.33847743 3.64594076 11.36527301 6.13930893 11.34765625 8.66015625 C11.3462413 9.41340683 11.34482635 10.16665741 11.34336853 10.94273376 C11.33775376 13.3576956 11.32519883 15.77256601 11.3125 18.1875 C11.3074869 19.82096221 11.30292366 21.45442586 11.29882812 23.08789062 C11.28777954 27.10029585 11.27050506 31.11263241 11.25 35.125 C8.44462697 36.06012434 6.76834636 36.24682907 3.87036133 36.23852539 C2.98967484 36.23844986 2.10898834 36.23837433 1.20161438 36.23829651 C0.25465195 36.23313522 -0.69231049 36.22797394 -1.66796875 36.22265625 C-2.64034988 36.2212413 -3.61273102 36.21982635 -4.61457825 36.21836853 C-7.72225004 36.21276817 -10.82984996 36.20021562 -13.9375 36.1875 C-16.04361875 36.18248505 -18.14973863 36.17792213 -20.25585938 36.17382812 C-25.42060064 36.16279862 -30.58528813 36.14553375 -35.75 36.125 C-35.75 41.735 -35.75 47.345 -35.75 53.125 C-22.22 53.125 -8.69 53.125 5.25 53.125 C5.25 63.355 5.25 73.585 5.25 84.125 C4.92 84.125 4.59 84.125 4.25 84.125 C4.25 74.555 4.25 64.985 4.25 55.125 C-9.61 55.125 -23.47 55.125 -37.75 55.125 C-37.75 48.195 -37.75 41.265 -37.75 34.125 C-14.98 33.63 -14.98 33.63 8.25 33.125 C8.58 22.895 8.91 12.665 9.25 2.125 C-16.82 2.125 -42.89 2.125 -69.75 2.125 C-69.75 1.795 -69.75 1.465 -69.75 1.125 C-16.90755124 0.02900716 -16.90755124 0.02900716 0 0 Z " fill="#FE4F13" transform="translate(728.75,417.875)"/>
<path d="M0 0 C3.02116057 2.75941947 4.76535008 5.13080971 6.33203125 8.90234375 C6.73446045 9.86342041 7.13688965 10.82449707 7.55151367 11.81469727 C7.96763916 12.84522217 8.38376465 13.87574707 8.8125 14.9375 C9.47052612 16.55386353 9.47052612 16.55386353 10.1418457 18.20288086 C21.24443831 45.82431162 28.30997592 74.32943589 31 104 C31.06912598 104.7420166 31.13825195 105.4840332 31.20947266 106.24853516 C33.30118013 129.798181 33.77026704 156.95900316 28 180 C27.34 180.33 26.68 180.66 26 181 C26.14313578 178.37482894 26.28946295 175.74989574 26.4375 173.125 C26.47681641 172.39796875 26.51613281 171.6709375 26.55664062 170.921875 C26.77590679 167.07628383 27.07176757 163.26052609 27.50488281 159.43286133 C28.07939902 153.74532417 28.1960341 148.09223561 28.23828125 142.37890625 C28.24789383 141.28849533 28.25750641 140.19808441 28.26741028 139.07463074 C28.29200252 135.5705551 28.30465068 132.06665173 28.3125 128.5625 C28.31578308 127.37313843 28.31906616 126.18377686 28.32244873 124.95837402 C28.33797348 107.62513678 27.78234377 90.97539501 24 74 C23.75032471 72.83513062 23.75032471 72.83513062 23.49560547 71.64672852 C18.39266743 48.13550708 11.17968551 25.36281781 0.69921875 3.68212891 C0 2 0 2 0 0 Z " fill="#FD5015" transform="translate(797,364)"/>
<path d="M0 0 C0 0.66 0 1.32 0 2 C-1.33837891 3.26171875 -1.33837891 3.26171875 -3.2265625 4.6875 C-3.92112549 5.21609619 -4.61568848 5.74469238 -5.33129883 6.28930664 C-6.08822021 6.85383545 -6.8451416 7.41836426 -7.625 8 C-8.40190186 8.58450928 -9.17880371 9.16901855 -9.97924805 9.77124023 C-12.31401041 11.5216545 -14.65647008 13.2613507 -17 15 C-17.61278809 15.46035645 -18.22557617 15.92071289 -18.85693359 16.39501953 C-43.19836988 34.65990844 -86.35007999 64.78476993 -118 63 C-118 62.34 -118 61.68 -118 61 C-117.16359985 60.77449463 -117.16359985 60.77449463 -116.31030273 60.54443359 C-104.53594925 57.34413166 -93.21169118 53.85156066 -82 49 C-80.61348209 48.41358741 -79.22675629 47.82766615 -77.83984375 47.2421875 C-70.66591036 44.18752848 -63.73879881 40.93096597 -57 37 C-55.18047096 36.00088361 -53.36093104 35.00178701 -51.54125977 34.00292969 C-38.74777377 26.93369092 -26.35970979 19.22118066 -15 10 C-12.69744922 8.17459244 -10.38151671 6.36691766 -8.0625 4.5625 C-7.20930176 3.88755493 -7.20930176 3.88755493 -6.33886719 3.19897461 C-2.22758551 0 -2.22758551 0 0 0 Z " fill="#FD5113" transform="translate(719,726)"/>
<path d="M0 0 C1.30497909 3.68972944 0.69955125 6.37362683 -0.14453125 10.14453125 C-0.40943359 11.38138672 -0.67433594 12.61824219 -0.94726562 13.89257812 C-1.50497204 16.43338111 -2.07273684 18.97162551 -2.64257812 21.50976562 C-7.09576691 42.40878348 -7.34453775 63.64720166 -7.625 84.9375 C-7.6633174 87.38607948 -7.70237624 89.83464748 -7.7421875 92.28320312 C-7.83663214 98.18869767 -7.9220791 104.09426546 -8 110 C-13.32644351 104.67355649 -11.13746424 88.51255789 -11.1875 81.125 C-11.13486705 11.13486705 -11.13486705 11.13486705 0 0 Z " fill="#FD5016" transform="translate(208,414)"/>
<path d="M0 0 C1.10769241 0.00303635 1.10769241 0.00303635 2.23776245 0.00613403 C2.99660736 0.00517731 3.75545227 0.00422058 4.53729248 0.00323486 C6.14968956 0.00255263 7.76208936 0.00440988 9.3744812 0.00857544 C11.82376435 0.01387901 14.27286038 0.00865503 16.72213745 0.00222778 C18.28984619 0.00288942 19.8575548 0.00417236 21.42526245 0.00613403 C22.15157867 0.0041098 22.8778949 0.00208557 23.6262207 0 C28.10492211 0.02025566 32.32503749 0.41237047 36.72994995 1.13894653 C36.72994995 1.46894653 36.72994995 1.79894653 36.72994995 2.13894653 C31.95716098 3.08759579 27.33529018 3.27066074 22.48776245 3.23660278 C21.71939056 3.23518784 20.95101868 3.23377289 20.15936279 3.23231506 C17.72451757 3.22675337 15.28976701 3.21420813 12.85494995 3.20144653 C11.19609712 3.19642658 9.53724284 3.19186454 7.87838745 3.18777466 C3.82884317 3.1776508 -0.22049846 3.15806824 -4.27005005 3.13894653 C-4.27005005 8.74894653 -4.27005005 14.35894653 -4.27005005 20.13894653 C11.56994995 19.80894653 27.40994995 19.47894653 43.72994995 19.13894653 C43.72994995 28.70894653 43.72994995 38.27894653 43.72994995 48.13894653 C43.39994995 48.13894653 43.06994995 48.13894653 42.72994995 48.13894653 C42.5328165 44.38938779 42.34891835 40.63929349 42.16744995 36.88894653 C42.08333862 35.29373169 42.08333862 35.29373169 41.99752808 33.66629028 C41.94918823 32.6414856 41.90084839 31.61668091 41.8510437 30.56082153 C41.80391235 29.61819458 41.75678101 28.67556763 41.70822144 27.70437622 C41.72994995 25.13894653 41.72994995 25.13894653 42.72994995 21.13894653 C27.21994995 21.13894653 11.70994995 21.13894653 -4.27005005 21.13894653 C-4.60005005 21.79894653 -4.93005005 22.45894653 -5.27005005 23.13894653 C-6.46224359 20.75455944 -6.39921027 19.26238652 -6.40286255 16.60379028 C-6.40415161 15.71240356 -6.40544067 14.82101685 -6.4067688 13.90261841 C-6.40290161 12.96998169 -6.39903442 12.03734497 -6.39505005 11.07644653 C-6.39891724 10.13994263 -6.40278442 9.20343872 -6.4067688 8.23855591 C-6.40547974 7.34845825 -6.40419067 6.4583606 -6.40286255 5.54129028 C-6.40173462 4.72136597 -6.40060669 3.90144165 -6.39944458 3.05667114 C-6.12808531 -0.96507806 -3.39534418 0.01578432 0 0 Z " fill="#FE5217" transform="translate(697.2700500488281,501.8610534667969)"/>
<path d="M0 0 C5.43207305 -0.17810076 10.61425287 0.03260341 16.01094055 0.7129364 C27.6867792 2.15428961 39.27501438 2.27343426 51.02661133 2.20581055 C54.32576184 2.1874261 57.62463136 2.18530269 60.92382812 2.18554688 C78.69582055 2.86372324 78.69582055 2.86372324 96 0 C98.06145107 -0.068991 100.12501401 -0.08467727 102.1875 -0.0625 C103.81751953 -0.04896484 103.81751953 -0.04896484 105.48046875 -0.03515625 C106.31191406 -0.02355469 107.14335938 -0.01195312 108 0 C98.65685127 9.34314873 66.93524995 5.3642619 54.5625 5.375 C5.33228011 5.33228011 5.33228011 5.33228011 0 0 Z " fill="#FD5013" transform="translate(459,796)"/>
<path d="M0 0 C0 3.94389993 -1.31173846 4.98873413 -3.75 8.0625 C-16.35691599 24.36520481 -27.11834385 42.04431486 -36.375 60.4375 C-36.98239014 61.6438208 -36.98239014 61.6438208 -37.60205078 62.87451172 C-41.67972918 71.13015324 -44.92548182 79.68734385 -48.125 88.3125 C-49.70436903 92.56059773 -51.29423708 96.80057415 -53 101 C-53.33 101 -53.66 101 -54 101 C-53.42656355 94.80688638 -52.35902388 88.79033135 -50 83 C-49.01 82.505 -49.01 82.505 -48 82 C-47.27074588 80.25854959 -47.27074588 80.25854959 -46.6953125 78.12890625 C-44.91316773 72.48247384 -42.45308649 67.25907823 -39.875 61.9375 C-39.38781494 60.92816406 -38.90062988 59.91882813 -38.39868164 58.87890625 C-32.16450128 46.0870883 -25.23541364 34.03375788 -17.21875 22.28125 C-15.48669572 19.71976127 -13.83983799 17.14972999 -12.25 14.5 C-8.90353656 9.0605188 -4.59173294 4.41512782 0 0 Z " fill="#FD4E12" transform="translate(266,302)"/>
<path d="M0 0 C0.33 0 0.66 0 1 0 C0.41614145 5.18090574 -0.77577669 9.84436784 -2.5625 14.75 C-2.82788574 15.48387939 -3.09327148 16.21775879 -3.36669922 16.97387695 C-12.97018364 43.14433954 -25.72554132 70.66940318 -44 92 C-44.66 91.67 -45.32 91.34 -46 91 C-45.46632813 90.25878906 -44.93265625 89.51757812 -44.3828125 88.75390625 C-25.08237358 61.47283602 -11.2106053 31.39282631 0 0 Z " fill="#FD4F12" transform="translate(814,580)"/>
<path d="M0 0 C1.67991531 -0.00642769 1.67991531 -0.00642769 3.39376831 -0.01298523 C5.75518118 -0.01869279 8.11661161 -0.0192554 10.47802734 -0.01489258 C13.99739678 -0.01176959 17.51589258 -0.03510939 21.03515625 -0.06054688 C58.10936835 -0.16411701 58.10936835 -0.16411701 74.9296875 5.30078125 C74.9296875 5.63078125 74.9296875 5.96078125 74.9296875 6.30078125 C70.23919142 6.48472227 65.9356765 6.20471238 61.3046875 5.42578125 C32.79909742 0.82810543 4.57574481 2.32682037 -24.0703125 4.30078125 C-24.0703125 3.64078125 -24.0703125 2.98078125 -24.0703125 2.30078125 C-15.98417063 0.73207354 -8.2303107 -0.00722875 0 0 Z " fill="#FD5113" transform="translate(496.0703125,187.69921875)"/>
<path d="M0 0 C1.41409867 2.82819735 2.3936777 5.00180324 3.23681641 7.95483398 C3.45689362 8.71920273 3.67697083 9.48357147 3.90371704 10.27110291 C4.24915054 11.49622337 4.24915054 11.49622337 4.6015625 12.74609375 C4.8428891 13.59422134 5.0842157 14.44234894 5.33285522 15.31617737 C5.84083998 17.10676343 6.346703 18.8979526 6.85058594 20.68969727 C7.62182951 23.42625035 8.40428172 26.15943166 9.1875 28.89257812 C9.68037457 30.63522249 10.17258436 32.37805504 10.6640625 34.12109375 C10.89839996 34.9358165 11.13273743 35.75053925 11.37417603 36.58995056 C12.45949325 40.48662645 13.30693114 43.91083548 13 48 C6.21640995 37.82461492 5.31102642 24.77253837 2 13 C1.67 35.11 1.34 57.22 1 80 C0.67 80 0.34 80 0 80 C0 53.6 0 27.2 0 0 Z " fill="#FD1B08" transform="translate(551,474)"/>
<path d="M0 0 C7.50930586 0.49177367 13.84142895 2.45863962 20.875 5.0625 C22.91256797 5.80748579 24.95157063 6.54856282 26.9921875 7.28515625 C27.88276855 7.61394775 28.77334961 7.94273926 29.69091797 8.28149414 C32.07437329 9.1485568 32.07437329 9.1485568 35 9 C35 9.66 35 10.32 35 11 C35.54527344 11.17015625 36.09054687 11.3403125 36.65234375 11.515625 C42.28384978 13.32540814 47.63939569 15.50345378 53 18 C53 18.66 53 19.32 53 20 C46.39717922 17.86869059 39.91120376 15.49385257 33.4375 13 C30.77694452 11.97951297 28.11619677 10.959542 25.45483398 9.94116211 C23.91124003 9.34936154 22.36888978 8.75429627 20.82836914 8.15454102 C15.2774462 6.01874325 9.62895337 4.48314888 3.87890625 2.96484375 C1 2 1 2 0 0 Z " fill="#FD5113" transform="translate(595,199)"/>
<path d="M0 0 C0.33 0 0.66 0 1 0 C1 26.73 1 53.46 1 81 C0.67 81 0.34 81 0 81 C-0.33 58.89 -0.66 36.78 -1 14 C-1.66 15.65 -2.32 17.3 -3 19 C-3.33 19 -3.66 19 -4 19 C-3.37968409 12.42465139 -1.85102717 6.33307408 0 0 Z " fill="#FE0D00" transform="translate(611,473)"/>
<path d="M0 0 C0 4.07637131 -2.08066301 5.64304487 -4.75 8.4375 C-5.24008545 8.96029541 -5.7301709 9.48309082 -6.23510742 10.02172852 C-9.87413193 13.8785069 -13.57822268 17.67303116 -17.3125 21.4375 C-17.79106445 21.92081787 -18.26962891 22.40413574 -18.76269531 22.90209961 C-22.025062 26.14924793 -25.43441515 29.09802474 -29 32 C-29.66 31.67 -30.32 31.34 -31 31 C-20.77 20.77 -10.54 10.54 0 0 Z " fill="#FD5011" transform="translate(751,693)"/>
<path d="M0 0 C7.67170274 2.27329729 15.31073876 4.64294479 22.9375 7.0625 C24.05962891 7.41376953 25.18175781 7.76503906 26.33789062 8.12695312 C27.41103516 8.46791016 28.48417969 8.80886719 29.58984375 9.16015625 C30.55784912 9.46574463 31.52585449 9.77133301 32.52319336 10.08618164 C35 11 35 11 38 13 C29.63724388 12.68293998 22.34611317 10.41081097 14.5 7.625 C13.32179688 7.22539063 12.14359375 6.82578125 10.9296875 6.4140625 C2.25535402 3.38303103 2.25535402 3.38303103 0 0 Z " fill="#FD5013" transform="translate(392,777)"/>
<path d="M0 0 C-1 2 -1 2 -2.99023438 2.68603516 C-5.82480517 3.34257959 -8.65930399 3.99536119 -11.5 4.625 C-12.469375 4.85445312 -13.43875 5.08390625 -14.4375 5.3203125 C-20.43600904 6.67481454 -25.85345752 7.24128989 -32 7 C-29.50579404 4.50579404 -27.94968235 4.39164051 -24.51171875 3.7109375 C-23.41279297 3.49179687 -22.31386719 3.27265625 -21.18164062 3.046875 C-20.02857422 2.82515625 -18.87550781 2.6034375 -17.6875 2.375 C-16.54603516 2.14554688 -15.40457031 1.91609375 -14.22851562 1.6796875 C-9.41580296 0.73458437 -4.92121221 -0.147642 0 0 Z " fill="#FD5215" transform="translate(600,789)"/>
<path d="M0 0 C0.33 0 0.66 0 1 0 C1.08040527 0.56920166 1.16081055 1.13840332 1.24365234 1.72485352 C1.61572901 4.33814804 1.99530934 6.95030131 2.375 9.5625 C2.50132812 10.45775391 2.62765625 11.35300781 2.7578125 12.27539062 C3.49955503 17.33778341 4.58604249 22.07552731 6 27 C6.1953125 29.65234375 6.1953125 29.65234375 6.125 31.9375 C6.10695312 32.70964844 6.08890625 33.48179687 6.0703125 34.27734375 C6.04710937 34.84582031 6.02390625 35.41429687 6 36 C5.34 35.67 4.68 35.34 4 35 C3.40576172 33.07324219 3.40576172 33.07324219 2.9296875 30.546875 C2.7553418 29.62277832 2.58099609 28.69868164 2.40136719 27.74658203 C2.22766602 26.75770996 2.05396484 25.76883789 1.875 24.75 C1.69614258 23.75468262 1.51728516 22.75936523 1.33300781 21.73388672 C0.08243379 14.3983768 -0.50574042 7.44562278 0 0 Z " fill="#FD4E13" transform="translate(200,526)"/>
<path d="M0 0 C0.33 0 0.66 0 1 0 C1.40105108 7.19276394 -0.08202556 13.49493616 -1.875 20.4375 C-2.14441406 21.53771484 -2.41382813 22.63792969 -2.69140625 23.77148438 C-4.2170309 29.79584123 -4.2170309 29.79584123 -5 32 C-5.99 32.495 -5.99 32.495 -7 33 C-6.30564279 25.8279053 -4.66237462 18.98754312 -2.9375 12 C-2.65583984 10.84371094 -2.37417969 9.68742188 -2.08398438 8.49609375 C-1.39328783 5.66306724 -0.6985301 2.83110327 0 0 Z " fill="#FD5013" transform="translate(822,546)"/>
<path d="M0 0 C3.73732248 3.73732248 4.6133665 9.48433646 6.1875 14.4375 C6.56841797 15.59572266 6.94933594 16.75394531 7.34179688 17.94726562 C7.87450195 19.61112305 7.87450195 19.61112305 8.41796875 21.30859375 C8.74563232 22.32751709 9.0732959 23.34644043 9.41088867 24.39624023 C10 27 10 27 9 30 C3.97238766 18.65908819 3.97238766 18.65908819 2.8125 12.8125 C2.544375 11.554375 2.27625 10.29625 2 9 C1.34 8.67 0.68 8.34 0 8 C0 5.36 0 2.72 0 0 Z " fill="#FD4E12" transform="translate(208,571)"/>
<path d="M0 0 C0.33 0.66 0.66 1.32 1 2 C0.31292969 2.89203125 -0.37414062 3.7840625 -1.08203125 4.703125 C-1.99220048 5.88540668 -2.902356 7.0676989 -3.8125 8.25 C-4.26431641 8.83652344 -4.71613281 9.42304687 -5.18164062 10.02734375 C-5.62314453 10.60097656 -6.06464844 11.17460938 -6.51953125 11.765625 C-7.16462646 12.5999707 -7.16462646 12.5999707 -7.82275391 13.45117188 C-8.81175759 14.75234138 -9.76052048 16.08396023 -10.69921875 17.421875 C-11.12847656 17.94265625 -11.55773437 18.4634375 -12 19 C-12.66 19 -13.32 19 -14 19 C-12.71606032 16.2682214 -11.30918785 13.94430645 -9.43359375 11.58203125 C-8.94826172 10.96779297 -8.46292969 10.35355469 -7.96289062 9.72070312 C-7.45951172 9.09099609 -6.95613281 8.46128906 -6.4375 7.8125 C-5.67663086 6.85053711 -5.67663086 6.85053711 -4.90039062 5.86914062 C-1.18849649 1.18849649 -1.18849649 1.18849649 0 0 Z " fill="#FC4F12" transform="translate(767,673)"/>
<path d="M0 0 C7.61610975 -0.38725982 14.72357223 0.63949218 22 3 C22.33 3.66 22.66 4.32 23 5 C15.1177798 4.48400816 7.65541695 2.9078547 0 1 C0 0.67 0 0.34 0 0 Z " fill="#FE5214" transform="translate(571,194)"/>
<path d="M0 0 C0.33 0 0.66 0 1 0 C1 3.3 1 6.6 1 10 C0.34 10 -0.32 10 -1 10 C-1.12375 10.928125 -1.2475 11.85625 -1.375 12.8125 C-2 16 -2 16 -4 19 C-3.37968409 12.42465139 -1.85102717 6.33307408 0 0 Z " fill="#FB260D" transform="translate(611,473)"/>
<path d="M0 0 C3 2 3 2 3.625 4.375 C3.810625 5.674375 3.810625 5.674375 4 7 C4.226875 7.680625 4.45375 8.36125 4.6875 9.0625 C5.09895846 11.61354246 4.20673834 12.77608758 3 15 C2.49363393 13.25183142 1.99515381 11.50137737 1.5 9.75 C1.2215625 8.77546875 0.943125 7.8009375 0.65625 6.796875 C0 4 0 4 0 0 Z " fill="#FD260D" transform="translate(578,472)"/>
<path d="M0 0 C0.66 0 1.32 0 2 0 C1.25 6.75 1.25 6.75 -1 9 C-1.80967438 6.08517222 -2.21845993 4.53886783 -1.0625 1.6875 C-0.711875 1.130625 -0.36125 0.57375 0 0 Z " fill="#FD5116" transform="translate(210,404)"/>
<path d="M0 0 C0 4.38968456 -2.12805101 5.76905739 -5 9 C-5.33 8.34 -5.66 7.68 -6 7 C-4.02 4.69 -2.04 2.38 0 0 Z " fill="#FD490C" transform="translate(266,302)"/>
<path d="M0 0 C0.33 0 0.66 0 1 0 C1 1.65 1 3.3 1 5 C0.67 5 0.34 5 0 5 C0 3.35 0 1.7 0 0 Z " fill="#FE6731" transform="translate(689,467)"/>
<path d="M0 0 C1 4 1 4 1 4 Z " fill="#FC6530" transform="translate(736,438)"/>
<path d="M0 0 C0.99 0 1.98 0 3 0 C2.67 0.66 2.34 1.32 2 2 C1.34 1.34 0.68 0.68 0 0 Z " fill="#FC652E" transform="translate(734,422)"/>
<path d="M0 0 C3 1 3 1 3 1 Z " fill="#FB642E" transform="translate(417,789)"/>
<path d="M0 0 C0.66 0.66 1.32 1.32 2 2 C1.34 2 0.68 2 0 2 C0 1.34 0 0.68 0 0 Z " fill="#F8652F" transform="translate(228,630)"/>
<path d="" fill="#F6642D" transform="translate(0,0)"/>
<path d="M0 0 C0.66 0.66 1.32 1.32 2 2 C1.34 2 0.68 2 0 2 C0 1.34 0 0.68 0 0 Z " fill="#FF682F" transform="translate(736,526)"/>
<path d="M0 0 C0.66 0.66 1.32 1.32 2 2 C1.34 2 0.68 2 0 2 C0 1.34 0 0.68 0 0 Z " fill="#FF672F" transform="translate(737,524)"/>
<path d="M0 0 C3 1 3 1 3 1 Z " fill="#FE682F" transform="translate(726,474)"/>
<path d="" fill="#FD6830" transform="translate(0,0)"/>
<path d="" fill="#FD652F" transform="translate(0,0)"/>
<path d="M0 0 C3 1 3 1 3 1 Z " fill="#FF652D" transform="translate(696,422)"/>
<path d="M0 0 C3 1 3 1 3 1 Z " fill="#FF672E" transform="translate(496,422)"/>
<path d="" fill="#F66733" transform="translate(0,0)"/>
<path d="M0 0 C2 1 2 1 2 1 Z " fill="#FA642E" transform="translate(563,799)"/>
<path d="M0 0 C2 1 2 1 2 1 Z " fill="#F96630" transform="translate(459,798)"/>
<path d="M0 0 C2 1 2 1 2 1 Z " fill="#FA652F" transform="translate(604,790)"/>
<path d="M0 0 C2 1 2 1 2 1 Z " fill="#F8652E" transform="translate(422,790)"/>
<path d="M0 0 C2 1 2 1 2 1 Z " fill="#F7672E" transform="translate(627,782)"/>
<path d="M0 0 C2 1 2 1 2 1 Z " fill="#FA642F" transform="translate(394,781)"/>
<path d="" fill="#F7642D" transform="translate(0,0)"/>
<path d="" fill="#F7642F" transform="translate(0,0)"/>
<path d="" fill="#F66630" transform="translate(0,0)"/>
<path d="" fill="#F7652D" transform="translate(0,0)"/>
<path d="" fill="#F6642F" transform="translate(0,0)"/>
<path d="" fill="#FF672F" transform="translate(0,0)"/>
<path d="" fill="#F66631" transform="translate(0,0)"/>
<path d="M0 0 C2 1 2 1 2 1 Z " fill="#FF682F" transform="translate(710,474)"/>
<path d="M0 0 C2 1 2 1 2 1 Z " fill="#FD682F" transform="translate(695,474)"/>
<path d="" fill="#FF682F" transform="translate(0,0)"/>
<path d="" fill="#FF652C" transform="translate(0,0)"/>
<path d="" fill="#F56631" transform="translate(0,0)"/>
<path d="M0 0 C2 1 2 1 2 1 Z " fill="#F66731" transform="translate(232,347)"/>
<path d="M0 0 C2 1 2 1 2 1 Z " fill="#F76630" transform="translate(590,195)"/>
<path d="" fill="#513326" transform="translate(0,0)"/>
<path d="" fill="#F9632A" transform="translate(0,0)"/>
<path d="" fill="#FA642D" transform="translate(0,0)"/>
<path d="" fill="#FA642C" transform="translate(0,0)"/>
<path d="" fill="#F7652D" transform="translate(0,0)"/>
<path d="" fill="#F8662F" transform="translate(0,0)"/>
<path d="" fill="#F66630" transform="translate(0,0)"/>
<path d="" fill="#F96530" transform="translate(0,0)"/>
<path d="" fill="#FA662F" transform="translate(0,0)"/>
<path d="" fill="#F8662D" transform="translate(0,0)"/>
<path d="" fill="#F76732" transform="translate(0,0)"/>
<path d="" fill="#F96730" transform="translate(0,0)"/>
<path d="" fill="#F56832" transform="translate(0,0)"/>
<path d="" fill="#F76530" transform="translate(0,0)"/>
<path d="" fill="#F6642D" transform="translate(0,0)"/>
<path d="" fill="#F7652E" transform="translate(0,0)"/>
<path d="" fill="#F6652E" transform="translate(0,0)"/>
<path d="" fill="#F7632C" transform="translate(0,0)"/>
<path d="" fill="#F7642E" transform="translate(0,0)"/>
<path d="" fill="#F7652D" transform="translate(0,0)"/>
<path d="" fill="#F8652E" transform="translate(0,0)"/>
<path d="" fill="#F36230" transform="translate(0,0)"/>
<path d="" fill="#F8652E" transform="translate(0,0)"/>
<path d="" fill="#F4652F" transform="translate(0,0)"/>
<path d="" fill="#F8652E" transform="translate(0,0)"/>
<path d="" fill="#F4652E" transform="translate(0,0)"/>
<path d="" fill="#F5652F" transform="translate(0,0)"/>
<path d="" fill="#F6662E" transform="translate(0,0)"/>
<path d="" fill="#F56630" transform="translate(0,0)"/>
<path d="" fill="#F76831" transform="translate(0,0)"/>
<path d="" fill="#F66832" transform="translate(0,0)"/>
<path d="" fill="#F7612B" transform="translate(0,0)"/>
<path d="" fill="#F9632E" transform="translate(0,0)"/>
<path d="" fill="#F56830" transform="translate(0,0)"/>
<path d="" fill="#FA652F" transform="translate(0,0)"/>
<path d="" fill="#F8652E" transform="translate(0,0)"/>
<path d="" fill="#F66730" transform="translate(0,0)"/>
<path d="" fill="#F86A33" transform="translate(0,0)"/>
<path d="" fill="#F7662F" transform="translate(0,0)"/>
<path d="" fill="#F36631" transform="translate(0,0)"/>
<path d="" fill="#F6662E" transform="translate(0,0)"/>
<path d="" fill="#F9652F" transform="translate(0,0)"/>
<path d="" fill="#FB652E" transform="translate(0,0)"/>
<path d="" fill="#F76931" transform="translate(0,0)"/>
<path d="" fill="#F8652F" transform="translate(0,0)"/>
<path d="" fill="#F8662F" transform="translate(0,0)"/>
<path d="" fill="#F86630" transform="translate(0,0)"/>
<path d="" fill="#FE6831" transform="translate(0,0)"/>
<path d="" fill="#F76632" transform="translate(0,0)"/>
<path d="" fill="#FD6730" transform="translate(0,0)"/>
<path d="" fill="#FD6530" transform="translate(0,0)"/>
<path d="" fill="#FF6732" transform="translate(0,0)"/>
<path d="" fill="#FF6831" transform="translate(0,0)"/>
<path d="" fill="#FE672F" transform="translate(0,0)"/>
<path d="" fill="#FF6830" transform="translate(0,0)"/>
<path d="" fill="#FD6930" transform="translate(0,0)"/>
<path d="" fill="#FD652C" transform="translate(0,0)"/>
<path d="" fill="#FD6731" transform="translate(0,0)"/>
<path d="" fill="#FD672F" transform="translate(0,0)"/>
<path d="" fill="#FF6931" transform="translate(0,0)"/>
<path d="" fill="#FF6830" transform="translate(0,0)"/>
<path d="" fill="#F66832" transform="translate(0,0)"/>
<path d="" fill="#FC652F" transform="translate(0,0)"/>
<path d="" fill="#FC6431" transform="translate(0,0)"/>
<path d="" fill="#F76733" transform="translate(0,0)"/>
<path d="" fill="#FC642F" transform="translate(0,0)"/>
<path d="" fill="#FF652E" transform="translate(0,0)"/>
<path d="" fill="#FF642C" transform="translate(0,0)"/>
<path d="" fill="#FF662E" transform="translate(0,0)"/>
<path d="" fill="#FF662C" transform="translate(0,0)"/>
<path d="" fill="#FF642D" transform="translate(0,0)"/>
<path d="" fill="#FF662C" transform="translate(0,0)"/>
<path d="" fill="#FF652E" transform="translate(0,0)"/>
<path d="" fill="#FF662E" transform="translate(0,0)"/>
<path d="" fill="#FF652C" transform="translate(0,0)"/>
<path d="" fill="#FF662D" transform="translate(0,0)"/>
<path d="" fill="#FF682E" transform="translate(0,0)"/>
<path d="" fill="#FF672E" transform="translate(0,0)"/>
<path d="" fill="#FF662E" transform="translate(0,0)"/>
<path d="" fill="#FF682D" transform="translate(0,0)"/>
<path d="" fill="#FF6730" transform="translate(0,0)"/>
<path d="" fill="#FF642C" transform="translate(0,0)"/>
<path d="" fill="#FF692E" transform="translate(0,0)"/>
<path d="" fill="#F6672E" transform="translate(0,0)"/>
<path d="" fill="#F76931" transform="translate(0,0)"/>
<path d="" fill="#F6642E" transform="translate(0,0)"/>
<path d="" fill="#F66630" transform="translate(0,0)"/>
<path d="" fill="#F56430" transform="translate(0,0)"/>
<path d="" fill="#F36632" transform="translate(0,0)"/>
<path d="" fill="#F46731" transform="translate(0,0)"/>
<path d="" fill="#F46731" transform="translate(0,0)"/>
<path d="" fill="#F6642F" transform="translate(0,0)"/>
<path d="" fill="#F56831" transform="translate(0,0)"/>
<path d="" fill="#F76631" transform="translate(0,0)"/>
<path d="" fill="#F3632C" transform="translate(0,0)"/>
<path d="" fill="#F26731" transform="translate(0,0)"/>
<path d="" fill="#F56530" transform="translate(0,0)"/>
<path d="" fill="#F36730" transform="translate(0,0)"/>
<path d="" fill="#F26531" transform="translate(0,0)"/>
<path d="" fill="#F16630" transform="translate(0,0)"/>
<path d="" fill="#F4652F" transform="translate(0,0)"/>
<path d="" fill="#F4632E" transform="translate(0,0)"/>
<path d="" fill="#F6662E" transform="translate(0,0)"/>
<path d="" fill="#F36530" transform="translate(0,0)"/>
<path d="" fill="#F5652F" transform="translate(0,0)"/>
<path d="" fill="#F46932" transform="translate(0,0)"/>
<path d="" fill="#F4652F" transform="translate(0,0)"/>
<path d="" fill="#F56932" transform="translate(0,0)"/>
<path d="" fill="#F7682F" transform="translate(0,0)"/>
<path d="" fill="#F36432" transform="translate(0,0)"/>
<path d="" fill="#F0662E" transform="translate(0,0)"/>
<path d="" fill="#F76532" transform="translate(0,0)"/>
<path d="" fill="#F46731" transform="translate(0,0)"/>
<path d="" fill="#F26731" transform="translate(0,0)"/>
<path d="" fill="#F56831" transform="translate(0,0)"/>
<path d="" fill="#F4652D" transform="translate(0,0)"/>
<path d="" fill="#F4642E" transform="translate(0,0)"/>
<path d="" fill="#F5672F" transform="translate(0,0)"/>
<path d="" fill="#F3632A" transform="translate(0,0)"/>
<path d="" fill="#F76831" transform="translate(0,0)"/>
<path d="" fill="#F76831" transform="translate(0,0)"/>
<path d="" fill="#F66930" transform="translate(0,0)"/>
<path d="" fill="#F76630" transform="translate(0,0)"/>
<path d="" fill="#F76632" transform="translate(0,0)"/>
</svg>
